<svg height="24" width="24"  id="Layer_1" data-name="Layer 1" xmlns="http://www.w3.org/2000/svg" viewBox="0 0 64 64"><title>shop</title><path d="M60,23.79V20a6.68,6.68,0,0,0-3.83-6L50,11.09a3.56,3.56,0,0,1-2-3.22v0A3.85,3.85,0,0,0,44.15,4H19.85A3.85,3.85,0,0,0,16,7.85,3.56,3.56,0,0,1,14,11l-6.3,3.08A6.61,6.61,0,0,0,4,20.06v6A5.87,5.87,0,0,0,4.82,29,5.64,5.64,0,0,0,9.3,31.85a5.6,5.6,0,0,0,5.41-3.31.54.54,0,0,1,1,0,5.6,5.6,0,0,0,10.22,0,.54.54,0,0,1,1,0,5.6,5.6,0,0,0,10.27-.11.49.49,0,0,1,.88,0,5.6,5.6,0,0,0,10.32,0,.49.49,0,0,1,.9,0,5.55,5.55,0,0,0,10.43-.58,6,6,0,0,0,.21-.78V27A6,6,0,0,0,60,26Z"/><path d="M60,57.66A2.07,2.07,0,0,0,57.89,56,1.89,1.89,0,0,1,56,54.11v-16A2.07,2.07,0,0,0,54.34,36,2,2,0,0,0,52,38V54a2,2,0,0,1-2,2H36a2,2,0,0,1-2-2V38.11A2.07,2.07,0,0,0,32.34,36,2,2,0,0,0,30,38V52a4,4,0,0,1-4,4H16a4,4,0,0,1-4-4V38.11A2.07,2.07,0,0,0,10.34,36,2,2,0,0,0,8,38V54.26A1.74,1.74,0,0,1,6.26,56H6.11A2.07,2.07,0,0,0,4,57.66,2,2,0,0,0,6,60H58A2,2,0,0,0,60,57.66Z"/><circle cx="24" cy="46" r="2"/></svg>